<svg id="visual" viewBox="0 0 960 300" width="960" height="300" xmlns="http://www.w3.org/2000/svg" xmlns:xlink="http://www.w3.org/1999/xlink" version="1.1"><path d="M0 67L14.5 68C29 69 58 71 87.2 65C116.3 59 145.7 45 174.8 45.5C204 46 233 61 262 66.5C291 72 320 68 349 62.5C378 57 407 50 436.2 53.5C465.3 57 494.7 71 523.8 72C553 73 582 61 611 58.5C640 56 669 63 698 60C727 57 756 44 785.2 45C814.3 46 843.7 61 872.8 63.5C902 66 931 56 945.5 51L960 46L960 0L945.5 0C931 0 902 0 872.8 0C843.7 0 814.3 0 785.2 0C756 0 727 0 698 0C669 0 640 0 611 0C582 0 553 0 523.8 0C494.7 0 465.3 0 436.2 0C407 0 378 0 349 0C320 0 291 0 262 0C233 0 204 0 174.8 0C145.7 0 116.3 0 87.2 0C58 0 29 0 14.5 0L0 0Z" fill="#0062ff"></path><path d="M0 169L14.5 164C29 159 58 149 87.2 133.5C116.3 118 145.7 97 174.8 102.5C204 108 233 140 262 154C291 168 320 164 349 151.5C378 139 407 118 436.2 115C465.3 112 494.7 127 523.8 130.5C553 134 582 126 611 128C640 130 669 142 698 140.5C727 139 756 124 785.2 118.5C814.3 113 843.7 117 872.8 120.5C902 124 931 127 945.5 128.5L960 130L960 44L945.5 49C931 54 902 64 872.8 61.5C843.7 59 814.3 44 785.2 43C756 42 727 55 698 58C669 61 640 54 611 56.5C582 59 553 71 523.8 70C494.7 69 465.3 55 436.2 51.5C407 48 378 55 349 60.5C320 66 291 70 262 64.5C233 59 204 44 174.8 43.5C145.7 43 116.3 57 87.2 63C58 69 29 67 14.5 66L0 65Z" fill="#0b4fe4"></path><path d="M0 235L14.5 226.5C29 218 58 201 87.2 184C116.3 167 145.7 150 174.8 155.5C204 161 233 189 262 200.5C291 212 320 207 349 193C378 179 407 156 436.2 150.5C465.3 145 494.7 157 523.8 163.5C553 170 582 171 611 178.5C640 186 669 200 698 195.5C727 191 756 168 785.2 156.5C814.3 145 843.7 145 872.8 148C902 151 931 157 945.5 160L960 163L960 128L945.5 126.5C931 125 902 122 872.8 118.5C843.7 115 814.3 111 785.2 116.5C756 122 727 137 698 138.5C669 140 640 128 611 126C582 124 553 132 523.8 128.5C494.7 125 465.3 110 436.2 113C407 116 378 137 349 149.5C320 162 291 166 262 152C233 138 204 106 174.8 100.5C145.7 95 116.3 116 87.2 131.5C58 147 29 157 14.5 162L0 167Z" fill="#0c3dca"></path><path d="M0 283L14.5 280C29 277 58 271 87.2 266C116.3 261 145.7 257 174.8 255.5C204 254 233 255 262 256.5C291 258 320 260 349 263C378 266 407 270 436.2 270.5C465.3 271 494.7 268 523.8 265C553 262 582 259 611 259C640 259 669 262 698 262.5C727 263 756 261 785.2 259C814.3 257 843.7 255 872.8 253.5C902 252 931 251 945.5 250.5L960 250L960 161L945.5 158C931 155 902 149 872.8 146C843.7 143 814.3 143 785.2 154.5C756 166 727 189 698 193.5C669 198 640 184 611 176.5C582 169 553 168 523.8 161.5C494.7 155 465.3 143 436.2 148.5C407 154 378 177 349 191C320 205 291 210 262 198.5C233 187 204 159 174.8 153.5C145.7 148 116.3 165 87.2 182C58 199 29 216 14.5 224.5L0 233Z" fill="#082bb1"></path><path d="M0 301L14.5 301C29 301 58 301 87.2 301C116.3 301 145.7 301 174.8 301C204 301 233 301 262 301C291 301 320 301 349 301C378 301 407 301 436.2 301C465.3 301 494.7 301 523.8 301C553 301 582 301 611 301C640 301 669 301 698 301C727 301 756 301 785.2 301C814.3 301 843.7 301 872.8 301C902 301 931 301 945.5 301L960 301L960 248L945.5 248.5C931 249 902 250 872.8 251.5C843.7 253 814.3 255 785.2 257C756 259 727 261 698 260.5C669 260 640 257 611 257C582 257 553 260 523.8 263C494.7 266 465.3 269 436.2 268.5C407 268 378 264 349 261C320 258 291 256 262 254.5C233 253 204 252 174.8 253.5C145.7 255 116.3 259 87.2 264C58 269 29 275 14.5 278L0 281Z" fill="#001898"></path></svg>