<svg id="visual" viewBox="0 0 960 300" width="960" height="300" xmlns="http://www.w3.org/2000/svg" xmlns:xlink="http://www.w3.org/1999/xlink" version="1.1"><path d="M0 94L32 90C64 86 128 78 192 69C256 60 320 50 384 52C448 54 512 68 576 74C640 80 704 78 768 82.5C832 87 896 98 928 103.5L960 109L960 0L928 0C896 0 832 0 768 0C704 0 640 0 576 0C512 0 448 0 384 0C320 0 256 0 192 0C128 0 64 0 32 0L0 0Z" fill="#00ccff"></path><path d="M0 166L32 161.5C64 157 128 148 192 139.5C256 131 320 123 384 118C448 113 512 111 576 111.5C640 112 704 115 768 124.5C832 134 896 150 928 158L960 166L960 107L928 101.5C896 96 832 85 768 80.5C704 76 640 78 576 72C512 66 448 52 384 50C320 48 256 58 192 67C128 76 64 84 32 88L0 92Z" fill="#00b7ff"></path><path d="M0 205L32 197.5C64 190 128 175 192 164.5C256 154 320 148 384 147C448 146 512 150 576 153.5C640 157 704 160 768 167C832 174 896 185 928 190.5L960 196L960 164L928 156C896 148 832 132 768 122.5C704 113 640 110 576 109.5C512 109 448 111 384 116C320 121 256 129 192 137.5C128 146 64 155 32 159.5L0 164Z" fill="#009fff"></path><path d="M0 250L32 247.5C64 245 128 240 192 241C256 242 320 249 384 252.5C448 256 512 256 576 253.5C640 251 704 246 768 245C832 244 896 247 928 248.5L960 250L960 194L928 188.5C896 183 832 172 768 165C704 158 640 155 576 151.5C512 148 448 144 384 145C320 146 256 152 192 162.5C128 173 64 188 32 195.5L0 203Z" fill="#0083ff"></path><path d="M0 301L32 301C64 301 128 301 192 301C256 301 320 301 384 301C448 301 512 301 576 301C640 301 704 301 768 301C832 301 896 301 928 301L960 301L960 248L928 246.5C896 245 832 242 768 243C704 244 640 249 576 251.5C512 254 448 254 384 250.5C320 247 256 240 192 239C128 238 64 243 32 245.5L0 248Z" fill="#0062ff"></path></svg>